<svg xmlns="http://www.w3.org/2000/svg" width="25.757" height="29.821" viewBox="0 0 25.757 29.821">
  <path id="Path_1" data-name="Path 1" d="M58.7,11.469,41.091.612A4.073,4.073,0,0,0,34.883,4.08V25.7a4.115,4.115,0,0,0,4.064,4.125h.018a4.087,4.087,0,0,0,2.111-.635A1.163,1.163,0,1,0,39.865,27.2a1.784,1.784,0,0,1-.906.295,1.807,1.807,0,0,1-1.751-1.8V4.08a1.747,1.747,0,0,1,2.662-1.488L57.484,13.449a1.747,1.747,0,0,1-.008,2.98l-12.734,7.8a1.163,1.163,0,1,0,1.214,1.983l12.733-7.8a4.073,4.073,0,0,0,.015-6.944Z" transform="translate(-34.883 0)" fill="#616161"/>
</svg>
