<svg xmlns="http://www.w3.org/2000/svg" width="22.194" height="22.194" viewBox="0 0 22.194 22.194">
  <g id="search-interface-symbol" transform="translate(285.671 165.677)">
    <g id="_x34__4_" transform="translate(-285.671 -165.677)">
      <g id="Group_2" data-name="Group 2" transform="translate(0)">
        <path id="Path_2" data-name="Path 2" d="M21.99,20.987l-5.73-5.639a9.063,9.063,0,0,0,2.423-6.159A9.265,9.265,0,0,0,9.344,0,9.264,9.264,0,0,0,.006,9.189a9.264,9.264,0,0,0,9.338,9.189,9.391,9.391,0,0,0,5.877-2.052l5.752,5.661a.726.726,0,0,0,1.016,0A.7.7,0,0,0,21.99,20.987ZM9.344,16.965a7.839,7.839,0,0,1-7.9-7.775,7.839,7.839,0,0,1,7.9-7.775,7.839,7.839,0,0,1,7.9,7.775A7.839,7.839,0,0,1,9.344,16.965Z" transform="translate(-0.006)" fill="#616161"/>
      </g>
    </g>
  </g>
</svg>
